<svg xmlns="http://www.w3.org/2000/svg" viewBox="0 0 471.86 114.93"><defs><style>.cls-1{fill:#1c1c1c;}.cls-2{fill:#fff;}.cls-3{fill:none;stroke:#1c1c1c;stroke-miterlimit:10;}</style></defs><g id="TabBG"><rect class="cls-1" y="2.93" width="164" height="74"/></g><g id="TabText"><path class="cls-2" d="M84.3,24.48l-3,24.75-6-18.71L66,30.38,64.9,65.82l15.89,7.67-42.26-.43,15.4-7.59L53,30.24l-8.72-.07-6.4,18.92L35.72,23.77Z" transform="translate(-21 -10.07)"/><path class="cls-2" d="M128.32,72.85,106,73.77l.49-3.94a42.54,42.54,0,0,1-4.5.32q-2.25,0-4.5,0a22.93,22.93,0,0,1-4.5-.49,17.64,17.64,0,0,1-4.57-1.58,10.8,10.8,0,0,1-3.51-2.85A6.63,6.63,0,0,1,83.53,61a8.32,8.32,0,0,1,1.34-4.78A10.25,10.25,0,0,1,88.28,53a16.26,16.26,0,0,1,4.6-1.75,22.4,22.4,0,0,1,4.92-.57,57.3,57.3,0,0,1,5.77.29c1.87.18,3.77.35,5.7.49.09-.61.16-1.23.21-1.87s.07-1.27.07-1.93a22,22,0,0,0-.32-3.73,10.53,10.53,0,0,0-1.12-3.27,6,6,0,0,0-2.25-2.28,7.32,7.32,0,0,0-3.7-.84,10.65,10.65,0,0,0-3.83.66,7.49,7.49,0,0,0-3.06,2.29,4,4,0,0,1,1.34,1.72A6.25,6.25,0,0,1,97,44.38v.42c-.7,3.28-2.77,4.92-6.19,4.92A4.85,4.85,0,0,1,87,48.07a5.63,5.63,0,0,1-1.48-3.9,8.44,8.44,0,0,1,1.76-5.35,14.83,14.83,0,0,1,4.32-3.73,20.24,20.24,0,0,1,5.56-2.17,24.15,24.15,0,0,1,5.52-.71q8.09,0,12.62,3.73t4.53,12.16q0,.91,0,1.83c0,.61-.06,1.22-.11,1.83L118,67.93c1.79.8,3.52,1.62,5.21,2.46S126.59,72.06,128.32,72.85ZM108.49,56.19c-1.22-.14-2.44-.29-3.65-.46a28.12,28.12,0,0,0-3.66-.24,11.67,11.67,0,0,0-2.36.24,7.34,7.34,0,0,0-2.11.81,4.37,4.37,0,0,0-1.51,1.51,4.61,4.61,0,0,0-.56,2.36,3.49,3.49,0,0,0,.49,1.86,4.46,4.46,0,0,0,1.3,1.37,6.1,6.1,0,0,0,1.76.85,6.77,6.77,0,0,0,1.86.28,33.18,33.18,0,0,0,3.7-.21l3.62-.43Z" transform="translate(-21 -10.07)"/><path class="cls-2" d="M174,63.71a11.53,11.53,0,0,1-2.18,7,20.39,20.39,0,0,1-5.45,5.17,29,29,0,0,1-7.13,3.38,33.27,33.27,0,0,1-7.17,1.51l-31.5,2.67,11.6-9.35L130.29,28l-17.72-5.76,31.08-4.08L142.31,51.9a36.47,36.47,0,0,1,6.37-1.27,61.83,61.83,0,0,1,6.5-.35,33.83,33.83,0,0,1,6.57.67,20.38,20.38,0,0,1,6.09,2.22,13,13,0,0,1,4.46,4.11A11.27,11.27,0,0,1,174,63.71Zm-12.44,2a9,9,0,0,0-.85-4,8.42,8.42,0,0,0-2.28-2.89A10.14,10.14,0,0,0,155.07,57a13.8,13.8,0,0,0-4.11-.6,23.5,23.5,0,0,0-4.57.53A17.86,17.86,0,0,0,142,58.37l-.7,16.73a11,11,0,0,0,1.79.14h1.72a50.26,50.26,0,0,0,5.38-.31,21.51,21.51,0,0,0,5.45-1.3,11.08,11.08,0,0,0,4.26-2.89A7.27,7.27,0,0,0,161.58,65.68Z" transform="translate(-21 -10.07)"/></g><g id="FooleryText"><path class="cls-1" d="M244.86,20.2,244.58,49l-8.36-22.15-18.28,1.68-.43,18.22,6.05-.43,7.24-12.86-.63,32.9-7.1-12.23-5.7-.42-.28,15.61,15.54,6.61-41.77-.15c2.49-1.07,5-2.18,7.46-3.3s5-2.18,7.59-3.16l-1.12-39c-2.72-.79-5.42-1.69-8.09-2.67s-5.37-1.94-8.09-2.88q14.14-1.12,28.13-2.32T244.86,20.2Z" transform="translate(-21 -10.07)"/><path class="cls-1" d="M371.57,76.17l-32,1.19,12-7.66-2.32-53.16-16.52-6.12,29.74-.35-2.11,59.28Z" transform="translate(-21 -10.07)"/><path class="cls-1" d="M407.15,59.08c0,.33,0,.66,0,1s0,.66,0,1l-28.62.56a9.05,9.05,0,0,0,4.15,6.12,13.78,13.78,0,0,0,7.31,2,30.62,30.62,0,0,0,4-.28,24.25,24.25,0,0,0,4-.92,18.8,18.8,0,0,0,3.72-1.65,15.42,15.42,0,0,0,3.17-2.43,13.69,13.69,0,0,1-2.61,5.21,16,16,0,0,1-4.32,3.72,20.14,20.14,0,0,1-5.41,2.22,23.72,23.72,0,0,1-5.8.74,20.07,20.07,0,0,1-7.49-1.41A19.54,19.54,0,0,1,373,71a18.17,18.17,0,0,1-5.73-13.43A17.1,17.1,0,0,1,369,49.8a19.08,19.08,0,0,1,4.64-6A20.35,20.35,0,0,1,380.36,40a23.77,23.77,0,0,1,7.94-1.34,18.35,18.35,0,0,1,7.84,1.62,17.66,17.66,0,0,1,5.94,4.43,19.74,19.74,0,0,1,3.77,6.5A23.82,23.82,0,0,1,407.15,59.08Zm-10.76-3.59a13.66,13.66,0,0,0-.78-3.65,10.13,10.13,0,0,0-1.75-3.1,8.72,8.72,0,0,0-2.71-2.14,8,8,0,0,0-3.69-.81,8.16,8.16,0,0,0-3.66.77,7.8,7.8,0,0,0-2.6,2.08,11.11,11.11,0,0,0-1.72,3,20,20,0,0,0-1,3.55Z" transform="translate(-21 -10.07)"/><path class="cls-1" d="M447.86,37.56a6.64,6.64,0,0,1-1.76,4.75,6.17,6.17,0,0,1-4.71,1.86,6,6,0,0,1-3.38-.8,9,9,0,0,1-2-1.83,21.45,21.45,0,0,0-1.62-1.83,3.08,3.08,0,0,0-2.28-.81A5.41,5.41,0,0,0,428,40.55a10.78,10.78,0,0,0-2.32,3.91,6.5,6.5,0,0,0-.11,1.33c0,.8-.06,1.81-.1,3s-.1,2.56-.14,4-.1,2.84-.14,4.15-.1,2.47-.14,3.48-.07,1.68-.07,2L442,68.64l-40.64,4.15c2.44-1.55,4.87-3.08,7.31-4.6s4.88-3,7.32-4.54L413.4,39.11l-15.68-4.22,28.34-6.18-.14,6.46A42.62,42.62,0,0,1,432,31.69a16.41,16.41,0,0,1,6.93-1.44,13.16,13.16,0,0,1,2.6.28,11.41,11.41,0,0,1,2.53.85,7,7,0,0,1,2.11,1.51,5.79,5.79,0,0,1,1.34,2.28A9.21,9.21,0,0,1,447.86,37.56Z" transform="translate(-21 -10.07)"/><circle class="cls-2" cx="300.5" cy="44.43" r="24"/><path class="cls-1" d="M321.5,32A22.5,22.5,0,1,1,299,54.5,22.52,22.52,0,0,1,321.5,32m0-3A25.5,25.5,0,1,0,347,54.5,25.5,25.5,0,0,0,321.5,29Z" transform="translate(-21 -10.07)"/><circle class="cls-2" cx="248.5" cy="44.43" r="24"/><path class="cls-1" d="M269.5,32A22.5,22.5,0,1,1,247,54.5,22.52,22.52,0,0,1,269.5,32m0-3A25.5,25.5,0,1,0,295,54.5,25.5,25.5,0,0,0,269.5,29Z" transform="translate(-21 -10.07)"/><path class="cls-1" d="M492.86,38.69,491.1,80.6a34,34,0,0,1-1.69,9.63,21.58,21.58,0,0,1-4.25,7.49,18.26,18.26,0,0,1-7,4.81,25.84,25.84,0,0,1-9.74,1.69,22.47,22.47,0,0,1-6.26-.91,19.14,19.14,0,0,1-5.73-2.71,14.93,14.93,0,0,1-4.18-4.39,11.24,11.24,0,0,1-1.62-6,6,6,0,0,1,1.69-4.4A5.81,5.81,0,0,1,456.72,84a4.92,4.92,0,0,1,3.79,1.69,5.55,5.55,0,0,1,1.55,3.87,4.29,4.29,0,0,1-.88,2.6A5.65,5.65,0,0,1,459.11,94a9.73,9.73,0,0,0,4,3.09,12.41,12.41,0,0,0,4.92,1,9,9,0,0,0,5.87-1.82,12.26,12.26,0,0,0,3.41-4.57A23,23,0,0,0,479,85.76c.3-2.13.53-4.13.67-6s.15-3.81.17-5.66.09-3.71.18-5.59c-2.2.56-4.25,1-6.15,1.44a30.19,30.19,0,0,1-6.22.6,27.65,27.65,0,0,1-6.58-.77,16,16,0,0,1-5.48-2.46A12.45,12.45,0,0,1,451.79,63a13.83,13.83,0,0,1-1.4-6.47,14.29,14.29,0,0,1,.39-2.85c.25-1.19.56-2.42.91-3.69s.71-2.48,1.09-3.66l.84-2.67L443.57,32.5l24.12,8.3c-.29.8-.67,2-1.16,3.44s-1,3.06-1.52,4.68-1,3.16-1.33,4.64a14.62,14.62,0,0,0-.56,3.27,5.33,5.33,0,0,0,.84,3A7.3,7.3,0,0,0,466.1,62,9,9,0,0,0,469,63.19a13,13,0,0,0,3.13.39,28,28,0,0,0,4.11-.35,15.74,15.74,0,0,0,4-1.13l.14-17.5L467.05,36Z" transform="translate(-21 -10.07)"/><circle class="cls-1" cx="298" cy="52.93" r="12"/><circle class="cls-1" cx="253" cy="51.93" r="12"/><path class="cls-1" d="M295,118c-21.54,0-39-10.46-39-32h-7c0,25.41,20.59,39,46,39s46-13.59,46-39h-7C334,107.54,316.54,118,295,118Z" transform="translate(-21 -10.07)"/><rect class="cls-1" x="232" y="75.93" width="85" height="8"/><path class="cls-3" d="M267.5,34.5c-12,2-17,9-18,20" transform="translate(-21 -10.07)"/><path class="cls-3" d="M320.32,34.67c-12,2-17,9-18,20" transform="translate(-21 -10.07)"/></g></svg>